<mxfile host="app.diagrams.net" modified="2021-09-29T22:50:21.053Z" agent="5.0 (Windows NT 10.0; Win64; x64) AppleWebKit/537.36 (KHTML, like Gecko) Chrome/94.0.4606.61 Safari/537.36" etag="ObF0okGnngV1AAFyz2iM" version="15.3.8" type="github">
  <diagram id="zNIl8fDJtRn2VHGDIhId" name="Page-1">
    <mxGraphModel dx="782" dy="468" grid="1" gridSize="10" guides="1" tooltips="1" connect="1" arrows="1" fold="1" page="1" pageScale="1" pageWidth="850" pageHeight="1100" math="0" shadow="0">
      <root>
        <mxCell id="0" />
        <mxCell id="1" parent="0" />
        <mxCell id="lwUTJAftRuRHYBpQNuba-1" value="Input:&lt;br&gt;Angle" style="ellipse;whiteSpace=wrap;html=1;" vertex="1" parent="1">
          <mxGeometry x="310" y="10" width="120" height="80" as="geometry" />
        </mxCell>
        <mxCell id="lwUTJAftRuRHYBpQNuba-2" value="Input:&lt;br&gt;Velocity" style="ellipse;whiteSpace=wrap;html=1;" vertex="1" parent="1">
          <mxGeometry x="310" y="140" width="120" height="80" as="geometry" />
        </mxCell>
        <mxCell id="lwUTJAftRuRHYBpQNuba-3" style="edgeStyle=orthogonalEdgeStyle;rounded=0;orthogonalLoop=1;jettySize=auto;html=1;entryX=0;entryY=0.5;entryDx=0;entryDy=0;" edge="1" parent="1" source="lwUTJAftRuRHYBpQNuba-4" target="lwUTJAftRuRHYBpQNuba-16">
          <mxGeometry relative="1" as="geometry">
            <Array as="points">
              <mxPoint x="190" y="530" />
            </Array>
          </mxGeometry>
        </mxCell>
        <mxCell id="lwUTJAftRuRHYBpQNuba-4" value="Check Validity:&lt;br&gt;Angle" style="ellipse;whiteSpace=wrap;html=1;" vertex="1" parent="1">
          <mxGeometry x="130" y="240" width="120" height="80" as="geometry" />
        </mxCell>
        <mxCell id="lwUTJAftRuRHYBpQNuba-5" style="edgeStyle=orthogonalEdgeStyle;rounded=0;orthogonalLoop=1;jettySize=auto;html=1;entryX=0.98;entryY=0.59;entryDx=0;entryDy=0;entryPerimeter=0;" edge="1" parent="1" source="lwUTJAftRuRHYBpQNuba-7" target="lwUTJAftRuRHYBpQNuba-1">
          <mxGeometry relative="1" as="geometry">
            <Array as="points">
              <mxPoint x="570" y="57" />
            </Array>
          </mxGeometry>
        </mxCell>
        <mxCell id="lwUTJAftRuRHYBpQNuba-6" style="edgeStyle=orthogonalEdgeStyle;rounded=0;orthogonalLoop=1;jettySize=auto;html=1;entryX=1;entryY=0.5;entryDx=0;entryDy=0;" edge="1" parent="1" source="lwUTJAftRuRHYBpQNuba-7" target="lwUTJAftRuRHYBpQNuba-12">
          <mxGeometry relative="1" as="geometry">
            <Array as="points">
              <mxPoint x="550" y="400" />
            </Array>
          </mxGeometry>
        </mxCell>
        <mxCell id="lwUTJAftRuRHYBpQNuba-7" value="Check Validity:&lt;br&gt;Velocity" style="ellipse;whiteSpace=wrap;html=1;" vertex="1" parent="1">
          <mxGeometry x="510" y="240" width="120" height="80" as="geometry" />
        </mxCell>
        <mxCell id="lwUTJAftRuRHYBpQNuba-8" value="" style="endArrow=classic;html=1;" edge="1" parent="1" source="lwUTJAftRuRHYBpQNuba-1">
          <mxGeometry width="50" height="50" relative="1" as="geometry">
            <mxPoint x="380" y="220" as="sourcePoint" />
            <mxPoint x="370" y="140" as="targetPoint" />
          </mxGeometry>
        </mxCell>
        <mxCell id="lwUTJAftRuRHYBpQNuba-9" value="" style="endArrow=classic;html=1;exitX=0.06;exitY=0.69;exitDx=0;exitDy=0;exitPerimeter=0;entryX=0.5;entryY=0;entryDx=0;entryDy=0;" edge="1" parent="1" source="lwUTJAftRuRHYBpQNuba-1" target="lwUTJAftRuRHYBpQNuba-4">
          <mxGeometry width="50" height="50" relative="1" as="geometry">
            <mxPoint x="380" y="220" as="sourcePoint" />
            <mxPoint x="430" y="170" as="targetPoint" />
          </mxGeometry>
        </mxCell>
        <mxCell id="lwUTJAftRuRHYBpQNuba-10" value="" style="endArrow=classic;html=1;entryX=0.027;entryY=0.295;entryDx=0;entryDy=0;entryPerimeter=0;" edge="1" parent="1" target="lwUTJAftRuRHYBpQNuba-7">
          <mxGeometry width="50" height="50" relative="1" as="geometry">
            <mxPoint x="380" y="220" as="sourcePoint" />
            <mxPoint x="430" y="170" as="targetPoint" />
          </mxGeometry>
        </mxCell>
        <mxCell id="lwUTJAftRuRHYBpQNuba-11" style="edgeStyle=orthogonalEdgeStyle;rounded=0;orthogonalLoop=1;jettySize=auto;html=1;entryX=0.5;entryY=0;entryDx=0;entryDy=0;" edge="1" parent="1" source="lwUTJAftRuRHYBpQNuba-12" target="lwUTJAftRuRHYBpQNuba-16">
          <mxGeometry relative="1" as="geometry" />
        </mxCell>
        <mxCell id="lwUTJAftRuRHYBpQNuba-12" value="Math1:&lt;br&gt;Convert Angle to Radian&lt;br&gt;angle*(math.PI/180)" style="ellipse;whiteSpace=wrap;html=1;" vertex="1" parent="1">
          <mxGeometry x="310" y="360" width="120" height="80" as="geometry" />
        </mxCell>
        <mxCell id="lwUTJAftRuRHYBpQNuba-13" value="" style="endArrow=classic;html=1;entryX=0;entryY=1;entryDx=0;entryDy=0;" edge="1" parent="1" source="lwUTJAftRuRHYBpQNuba-4" target="lwUTJAftRuRHYBpQNuba-1">
          <mxGeometry width="50" height="50" relative="1" as="geometry">
            <mxPoint x="380" y="260" as="sourcePoint" />
            <mxPoint x="430" y="210" as="targetPoint" />
          </mxGeometry>
        </mxCell>
        <mxCell id="lwUTJAftRuRHYBpQNuba-14" value="Invalid Input" style="text;html=1;align=center;verticalAlign=middle;resizable=0;points=[];autosize=1;strokeColor=none;fillColor=none;" vertex="1" parent="1">
          <mxGeometry x="220" y="190" width="80" height="20" as="geometry" />
        </mxCell>
        <mxCell id="lwUTJAftRuRHYBpQNuba-15" style="edgeStyle=orthogonalEdgeStyle;rounded=0;orthogonalLoop=1;jettySize=auto;html=1;entryX=0.5;entryY=0;entryDx=0;entryDy=0;" edge="1" parent="1" source="lwUTJAftRuRHYBpQNuba-16" target="lwUTJAftRuRHYBpQNuba-19">
          <mxGeometry relative="1" as="geometry" />
        </mxCell>
        <mxCell id="lwUTJAftRuRHYBpQNuba-16" value="Math2:&lt;br&gt;x = cos(radian)*vel&lt;br&gt;y=sin(radian)*vel" style="ellipse;whiteSpace=wrap;html=1;" vertex="1" parent="1">
          <mxGeometry x="311" y="490" width="120" height="80" as="geometry" />
        </mxCell>
        <mxCell id="lwUTJAftRuRHYBpQNuba-17" value="" style="edgeStyle=orthogonalEdgeStyle;rounded=0;orthogonalLoop=1;jettySize=auto;html=1;" edge="1" parent="1" source="lwUTJAftRuRHYBpQNuba-19" target="lwUTJAftRuRHYBpQNuba-20">
          <mxGeometry relative="1" as="geometry" />
        </mxCell>
        <mxCell id="lwUTJAftRuRHYBpQNuba-18" value="" style="edgeStyle=orthogonalEdgeStyle;rounded=0;orthogonalLoop=1;jettySize=auto;html=1;" edge="1" parent="1" source="lwUTJAftRuRHYBpQNuba-19" target="lwUTJAftRuRHYBpQNuba-22">
          <mxGeometry relative="1" as="geometry" />
        </mxCell>
        <mxCell id="lwUTJAftRuRHYBpQNuba-19" value="Hit or Miss:&lt;br&gt;x = random target X&lt;br&gt;and&lt;br&gt;y=random target Y" style="ellipse;whiteSpace=wrap;html=1;" vertex="1" parent="1">
          <mxGeometry x="311" y="640" width="120" height="80" as="geometry" />
        </mxCell>
        <mxCell id="lwUTJAftRuRHYBpQNuba-20" value="You Win!" style="ellipse;whiteSpace=wrap;html=1;" vertex="1" parent="1">
          <mxGeometry x="311" y="810" width="120" height="60" as="geometry" />
        </mxCell>
        <mxCell id="lwUTJAftRuRHYBpQNuba-21" value="Hit" style="text;html=1;align=center;verticalAlign=middle;resizable=0;points=[];autosize=1;strokeColor=none;fillColor=none;" vertex="1" parent="1">
          <mxGeometry x="385" y="740" width="30" height="20" as="geometry" />
        </mxCell>
        <mxCell id="lwUTJAftRuRHYBpQNuba-22" value="You Loose!" style="ellipse;whiteSpace=wrap;html=1;" vertex="1" parent="1">
          <mxGeometry x="511" y="650" width="120" height="60" as="geometry" />
        </mxCell>
        <mxCell id="lwUTJAftRuRHYBpQNuba-23" value="Miss" style="text;html=1;align=center;verticalAlign=middle;resizable=0;points=[];autosize=1;strokeColor=none;fillColor=none;" vertex="1" parent="1">
          <mxGeometry x="440" y="650" width="40" height="20" as="geometry" />
        </mxCell>
      </root>
    </mxGraphModel>
  </diagram>
</mxfile>
